<?xml version="1.0" standalone="no"?>
<svg xmlns:xlink="http://www.w3.org/1999/xlink" id="wave" style="transform:rotate(0deg); transition: 0.3s" viewBox="0 0 1440 100" version="1.1" xmlns="http://www.w3.org/2000/svg"><defs><linearGradient id="sw-gradient-0" x1="0" x2="0" y1="1" y2="0"><stop stop-color="rgba(37, 41, 52, 1)" offset="0%"/><stop stop-color="rgba(37, 41, 52, 1)" offset="100%"/></linearGradient></defs><path style="transform:translate(0, 0px); opacity:1" fill="url(#sw-gradient-0)" d="M0,50L48,43.3C96,37,192,23,288,18.3C384,13,480,17,576,28.3C672,40,768,60,864,70C960,80,1056,80,1152,66.7C1248,53,1344,27,1440,28.3C1536,30,1632,60,1728,61.7C1824,63,1920,37,2016,26.7C2112,17,2208,23,2304,21.7C2400,20,2496,10,2592,13.3C2688,17,2784,33,2880,43.3C2976,53,3072,57,3168,51.7C3264,47,3360,33,3456,38.3C3552,43,3648,67,3744,70C3840,73,3936,57,4032,50C4128,43,4224,47,4320,55C4416,63,4512,77,4608,78.3C4704,80,4800,70,4896,60C4992,50,5088,40,5184,41.7C5280,43,5376,57,5472,58.3C5568,60,5664,50,5760,40C5856,30,5952,20,6048,26.7C6144,33,6240,57,6336,56.7C6432,57,6528,33,6624,21.7C6720,10,6816,10,6864,10L6912,10L6912,100L6864,100C6816,100,6720,100,6624,100C6528,100,6432,100,6336,100C6240,100,6144,100,6048,100C5952,100,5856,100,5760,100C5664,100,5568,100,5472,100C5376,100,5280,100,5184,100C5088,100,4992,100,4896,100C4800,100,4704,100,4608,100C4512,100,4416,100,4320,100C4224,100,4128,100,4032,100C3936,100,3840,100,3744,100C3648,100,3552,100,3456,100C3360,100,3264,100,3168,100C3072,100,2976,100,2880,100C2784,100,2688,100,2592,100C2496,100,2400,100,2304,100C2208,100,2112,100,2016,100C1920,100,1824,100,1728,100C1632,100,1536,100,1440,100C1344,100,1248,100,1152,100C1056,100,960,100,864,100C768,100,672,100,576,100C480,100,384,100,288,100C192,100,96,100,48,100L0,100Z"/></svg>